<svg width="12" height="13" viewBox="0 0 12 13" fill="none" xmlns="http://www.w3.org/2000/svg">
<path d="M10.5943 0H1.40571C0.630857 0 0 0.597125 0 1.33704V10.1122C0 10.8521 0.630857 11.4492 1.40571 11.4492H9.18171L8.81829 10.2485L9.696 11.0209L10.5257 11.7478L12 12.981V1.33704C12 0.597125 11.3691 0 10.5943 0ZM7.94743 8.47658C7.94743 8.47658 7.70057 8.19749 7.49486 7.95085C8.39314 7.7107 8.736 7.17848 8.736 7.17848C8.45486 7.35373 8.18743 7.47705 7.94743 7.56142C7.60457 7.69772 7.27543 7.78859 6.95314 7.84051C6.29486 7.95734 5.69143 7.92489 5.17714 7.83402C4.78629 7.76263 4.45029 7.65878 4.16914 7.55493C4.01143 7.49652 3.84 7.42512 3.66857 7.33426C3.648 7.32128 3.62743 7.31478 3.60686 7.3018C3.59314 7.29531 3.58629 7.28882 3.57943 7.28233C3.456 7.21743 3.38743 7.17199 3.38743 7.17199C3.38743 7.17199 3.71657 7.69123 4.58743 7.93787C4.38171 8.18451 4.128 8.47658 4.128 8.47658C2.61257 8.43115 2.03657 7.49003 2.03657 7.49003C2.03657 5.40009 3.024 3.70607 3.024 3.70607C4.01143 3.0051 4.95086 3.02457 4.95086 3.02457L5.01943 3.10246C3.78514 3.43996 3.216 3.95271 3.216 3.95271C3.216 3.95271 3.36686 3.87482 3.62057 3.76449C4.35429 3.45943 4.93714 3.37506 5.17714 3.35558C5.21829 3.34909 5.25257 3.3426 5.29371 3.3426C5.712 3.29068 6.18514 3.2777 6.67886 3.32962C7.33029 3.40102 8.02971 3.58275 8.74286 3.95271C8.74286 3.95271 8.20114 3.46592 7.03543 3.12842L7.13143 3.02457C7.13143 3.02457 8.07086 3.0051 9.05829 3.70607C9.05829 3.70607 10.0457 5.40009 10.0457 7.49003C10.0457 7.49003 9.46286 8.43115 7.94743 8.47658ZM4.75886 5.44552C4.368 5.44552 4.05943 5.77005 4.05943 6.16597C4.05943 6.56189 4.37486 6.88641 4.75886 6.88641C5.14971 6.88641 5.45829 6.56189 5.45829 6.16597C5.46514 5.77005 5.14971 5.44552 4.75886 5.44552ZM7.26171 5.44552C6.87086 5.44552 6.56229 5.77005 6.56229 6.16597C6.56229 6.56189 6.87771 6.88641 7.26171 6.88641C7.65257 6.88641 7.96114 6.56189 7.96114 6.16597C7.96114 5.77005 7.65257 5.44552 7.26171 5.44552Z" fill="white"/>
</svg>
