<svg width="11" height="11" viewBox="0 0 11 11" fill="none" xmlns="http://www.w3.org/2000/svg">
<path d="M5.49999 0.991011C6.96856 0.991011 7.1425 0.9966 7.72245 1.02306C8.25869 1.04753 8.54992 1.13713 8.74374 1.21243C9.00045 1.31221 9.18369 1.43141 9.37614 1.62386C9.56859 1.81632 9.68779 1.99955 9.78754 2.25626C9.86287 2.45008 9.95247 2.74131 9.97694 3.27753C10.0034 3.8575 10.009 4.03144 10.009 5.50001C10.009 6.96858 10.0034 7.14252 9.97694 7.72247C9.95247 8.25872 9.86287 8.54994 9.78754 8.74376C9.68779 9.00047 9.56859 9.18371 9.37614 9.37616C9.18369 9.56861 9.00045 9.68781 8.74374 9.78757C8.54992 9.86289 8.25869 9.95249 7.72245 9.97696C7.14258 10.0034 6.96865 10.009 5.49999 10.009C4.03133 10.009 3.85739 10.0034 3.27753 9.97696C2.74128 9.95249 2.45006 9.86289 2.25626 9.78757C1.99953 9.68781 1.81629 9.56861 1.62384 9.37616C1.43139 9.18371 1.31219 9.00047 1.21243 8.74376C1.13711 8.54994 1.04751 8.25872 1.02304 7.72249C0.996578 7.14252 0.990989 6.96858 0.990989 5.50001C0.990989 4.03144 0.996578 3.8575 1.02304 3.27755C1.04751 2.74131 1.13711 2.45008 1.21243 2.25626C1.31219 1.99955 1.43139 1.81632 1.62384 1.62386C1.81629 1.43141 1.99953 1.31221 2.25626 1.21243C2.45006 1.13713 2.74128 1.04753 3.27751 1.02306C3.85748 0.9966 4.03142 0.991011 5.49999 0.991011ZM5.49999 0C4.00627 0 3.81899 0.00633136 3.23236 0.0330977C2.64692 0.0598205 2.24713 0.152782 1.89727 0.288754C1.5356 0.42931 1.22887 0.617373 0.923113 0.923134C0.617351 1.2289 0.429288 1.53562 0.288732 1.89729C0.15276 2.24715 0.0597986 2.64695 0.0330759 3.23238C0.00630953 3.81899 0 4.00629 0 5.50001C0 6.99373 0.00630953 7.18103 0.0330759 7.76764C0.0597986 8.35308 0.15276 8.75287 0.288732 9.10273C0.429288 9.46438 0.617351 9.77113 0.923113 10.0769C1.22887 10.3826 1.5356 10.5707 1.89727 10.7113C2.24713 10.8472 2.64692 10.9402 3.23236 10.9669C3.81899 10.9937 4.00627 11 5.49999 11C6.99371 11 7.18101 10.9937 7.76762 10.9669C8.35305 10.9402 8.75285 10.8472 9.10271 10.7113C9.46438 10.5707 9.7711 10.3826 10.0769 10.0769C10.3826 9.77113 10.5707 9.4644 10.7112 9.10273C10.8472 8.75287 10.9402 8.35308 10.9669 7.76764C10.9937 7.18103 11 6.99373 11 5.50001C11 4.00629 10.9937 3.81899 10.9669 3.23238C10.9402 2.64695 10.8472 2.24715 10.7112 1.89729C10.5707 1.53562 10.3826 1.2289 10.0769 0.923134C9.7711 0.617373 9.46438 0.42931 9.10271 0.288754C8.75285 0.152782 8.35305 0.0598205 7.76762 0.0330977C7.18101 0.00633136 6.99371 0 5.49999 0ZM5.49999 2.67568C3.94016 2.67568 2.67566 3.94018 2.67566 5.50001C2.67566 7.05984 3.94016 8.32434 5.49999 8.32434C7.05982 8.32434 8.32432 7.05984 8.32432 5.50001C8.32432 3.94018 7.05982 2.67568 5.49999 2.67568ZM5.49999 7.33335C4.48747 7.33335 3.66664 6.51253 3.66664 5.50001C3.66664 4.4875 4.48747 3.66667 5.49999 3.66667C6.51251 3.66667 7.33333 4.4875 7.33333 5.50001C7.33333 6.51253 6.51251 7.33335 5.49999 7.33335ZM9.0959 2.56409C9.0959 2.9286 8.80042 3.2241 8.43591 3.2241C8.0714 3.2241 7.7759 2.9286 7.7759 2.56409C7.7759 2.19958 8.0714 1.9041 8.43591 1.9041C8.80042 1.9041 9.0959 2.19958 9.0959 2.56409Z" fill="white"/>
</svg>
