<svg width="12" height="10" viewBox="0 0 12 10" fill="none" xmlns="http://www.w3.org/2000/svg">
<path d="M12 1.21744C11.5585 1.4173 11.084 1.55239 10.586 1.61314C11.0943 1.30212 11.4846 0.809636 11.6685 0.222846C11.1928 0.510798 10.6659 0.71994 10.1051 0.832665C9.65601 0.344263 9.01617 0.0390625 8.30809 0.0390625C6.9484 0.0390625 5.84607 1.16421 5.84607 2.552C5.84607 2.74895 5.86788 2.94075 5.90984 3.12467C3.86371 3.01988 2.04964 2.01942 0.835378 0.499059C0.623461 0.87021 0.502052 1.30189 0.502052 1.76243C0.502052 2.63425 0.936728 3.40344 1.59732 3.85407C1.19372 3.84103 0.814134 3.728 0.482168 3.53978C0.481993 3.55026 0.481993 3.56079 0.481993 3.57136C0.481993 4.78894 1.33063 5.80463 2.45689 6.03546C2.25028 6.0929 2.03279 6.12359 1.80823 6.12359C1.6496 6.12359 1.49536 6.10786 1.34507 6.07852C1.65833 7.07692 2.56754 7.80345 3.64486 7.82374C2.80228 8.49772 1.74072 8.89947 0.587293 8.89947C0.388588 8.89947 0.192604 8.8876 0 8.86439C1.08952 9.57739 2.38363 9.99339 3.77395 9.99339C8.30234 9.99339 10.7786 6.16418 10.7786 2.8434C10.7786 2.73444 10.7763 2.62606 10.7715 2.5183C11.2525 2.164 11.6699 1.72139 12 1.21744Z" fill="white"/>
</svg>
