<svg width="33" height="35" viewBox="0 0 33 35" fill="none" xmlns="http://www.w3.org/2000/svg">
<g clip-path="url(#clip0_384_113)">
<path d="M29.0617 0.000244141H4.32319C2.23704 0.000244141 0.538574 1.60789 0.538574 3.59997V27.2254C0.538574 29.2174 2.23704 30.8251 4.32319 30.8251H25.2586L24.2801 27.5923L26.6432 29.6718L28.877 31.6289L32.8463 34.9491V3.59997C32.8463 1.60789 31.1478 0.000244141 29.0617 0.000244141ZM21.9355 22.8218C21.9355 22.8218 21.2709 22.0704 20.717 21.4064C23.1355 20.7598 24.0586 19.3269 24.0586 19.3269C23.3017 19.7987 22.5817 20.1308 21.9355 20.3579C21.0124 20.7249 20.1263 20.9695 19.2586 21.1093C17.4863 21.4239 15.8617 21.3365 14.477 21.0918C13.4247 20.8996 12.5201 20.62 11.7632 20.3404C11.3386 20.1832 10.877 19.991 10.4155 19.7463C10.3601 19.7114 10.3047 19.6939 10.2493 19.6589C10.2124 19.6415 10.194 19.624 10.1755 19.6065C9.84319 19.4318 9.65857 19.3095 9.65857 19.3095C9.65857 19.3095 10.5447 20.7074 12.8893 21.3714C12.3355 22.0355 11.6524 22.8218 11.6524 22.8218C7.57242 22.6995 6.02165 20.1657 6.02165 20.1657C6.02165 14.5389 8.68011 9.97813 8.68011 9.97813C11.3386 8.09089 13.8678 8.14332 13.8678 8.14332L14.0524 8.35301C10.7293 9.26168 9.19704 10.6422 9.19704 10.6422C9.19704 10.6422 9.60319 10.4325 10.2863 10.1354C12.2617 9.3141 13.8309 9.08693 14.477 9.03451C14.5878 9.01704 14.6801 8.99956 14.7909 8.99956C15.917 8.85977 17.1909 8.82482 18.5201 8.96461C20.274 9.15683 22.157 9.64611 24.077 10.6422C24.077 10.6422 22.6186 9.33157 19.4801 8.42291L19.7386 8.14332C19.7386 8.14332 22.2678 8.09089 24.9263 9.97813C24.9263 9.97813 27.5847 14.5389 27.5847 20.1657C27.5847 20.1657 26.0155 22.6995 21.9355 22.8218ZM13.3509 14.6613C12.2986 14.6613 11.4678 15.535 11.4678 16.6009C11.4678 17.6669 12.317 18.5406 13.3509 18.5406C14.4032 18.5406 15.234 17.6669 15.234 16.6009C15.2524 15.535 14.4032 14.6613 13.3509 14.6613ZM20.0893 14.6613C19.037 14.6613 18.2063 15.535 18.2063 16.6009C18.2063 17.6669 19.0555 18.5406 20.0893 18.5406C21.1417 18.5406 21.9724 17.6669 21.9724 16.6009C21.9724 15.535 21.1417 14.6613 20.0893 14.6613Z" fill="white"/>
</g>
<defs>
<clipPath id="clip0_384_113">
<rect width="32.3077" height="35" fill="white" transform="translate(0.538574 0.000244141)"/>
</clipPath>
</defs>
</svg>
