<svg width="30" height="30" viewBox="0 0 30 30" fill="none" xmlns="http://www.w3.org/2000/svg">
<g clip-path="url(#clip0_384_107)">
<path d="M14.8077 2.66835C18.7615 2.66835 19.2298 2.6834 20.7912 2.75464C22.2349 2.82053 23.019 3.06176 23.5408 3.26449C24.232 3.53311 24.7253 3.85405 25.2434 4.37218C25.7616 4.89032 26.0825 5.38366 26.3511 6.07478C26.5539 6.59663 26.7951 7.38068 26.861 8.82436C26.9322 10.3858 26.9473 10.8541 26.9473 14.808C26.9473 18.7618 26.9322 19.2301 26.861 20.7915C26.7951 22.2352 26.5539 23.0193 26.3511 23.5411C26.0825 24.2323 25.7616 24.7256 25.2434 25.2437C24.7253 25.7619 24.232 26.0828 23.5408 26.3514C23.019 26.5542 22.2349 26.7954 20.7912 26.8613C19.23 26.9325 18.7617 26.9476 14.8077 26.9476C10.8536 26.9476 10.3853 26.9325 8.82411 26.8613C7.38038 26.7954 6.59632 26.5542 6.07454 26.3514C5.38335 26.0828 4.89002 25.7619 4.37188 25.2437C3.85374 24.7256 3.53281 24.2323 3.26425 23.5411C3.06146 23.0193 2.82023 22.2353 2.75434 20.7916C2.6831 19.2301 2.66805 18.7618 2.66805 14.808C2.66805 10.8541 2.6831 10.3858 2.75434 8.82442C2.82023 7.38068 3.06146 6.59663 3.26425 6.07478C3.53281 5.38366 3.85374 4.89032 4.37188 4.37218C4.89002 3.85405 5.38335 3.53311 6.07454 3.26449C6.59632 3.06176 7.38038 2.82053 8.82405 2.75464C10.3855 2.6834 10.8538 2.66835 14.8077 2.66835ZM14.8077 0.000244141C10.7861 0.000244141 10.2819 0.0172901 8.7025 0.0893535C7.12633 0.161299 6.04997 0.411581 5.10803 0.777658C4.1343 1.15608 3.30851 1.6624 2.4853 2.48561C1.6621 3.30881 1.15578 4.1346 0.777355 5.10834C0.411278 6.05027 0.160996 7.12664 0.0890505 8.7028C0.0169872 10.2821 0 10.7864 0 14.808C0 18.8295 0.0169872 19.3338 0.0890505 20.9131C0.160996 22.4893 0.411278 23.5657 0.777355 24.5076C1.15578 25.4813 1.6621 26.3071 2.4853 27.1303C3.30851 27.9535 4.1343 28.4599 5.10803 28.8383C6.04997 29.2044 7.12633 29.4546 8.7025 29.5266C10.2819 29.5986 10.7861 29.6156 14.8077 29.6156C18.8292 29.6156 19.3335 29.5986 20.9128 29.5266C22.489 29.4546 23.5654 29.2044 24.5073 28.8383C25.481 28.4599 26.3068 27.9535 27.13 27.1303C27.9532 26.3071 28.4595 25.4813 28.838 24.5076C29.204 23.5657 29.4543 22.4893 29.5263 20.9131C29.5983 19.3338 29.6154 18.8295 29.6154 14.808C29.6154 10.7864 29.5983 10.2821 29.5263 8.7028C29.4543 7.12664 29.204 6.05027 28.838 5.10834C28.4595 4.1346 27.9532 3.30881 27.13 2.48561C26.3068 1.6624 25.481 1.15608 24.5073 0.777658C23.5654 0.411581 22.489 0.161299 20.9128 0.0893535C19.3335 0.0172901 18.8292 0.000244141 14.8077 0.000244141ZM14.8077 7.20399C10.6081 7.20399 7.20369 10.6084 7.20369 14.808C7.20369 19.0075 10.6081 22.4119 14.8077 22.4119C19.0072 22.4119 22.4116 19.0075 22.4116 14.808C22.4116 10.6084 19.0072 7.20399 14.8077 7.20399ZM14.8077 19.7439C12.0817 19.7439 9.87174 17.534 9.87174 14.808C9.87174 12.082 12.0817 9.87204 14.8077 9.87204C17.5337 9.87204 19.7436 12.082 19.7436 14.808C19.7436 17.534 17.5337 19.7439 14.8077 19.7439ZM24.489 6.90357C24.489 7.88495 23.6934 8.68053 22.7121 8.68053C21.7307 8.68053 20.9351 7.88495 20.9351 6.90357C20.9351 5.92219 21.7307 5.12667 22.7121 5.12667C23.6934 5.12667 24.489 5.92219 24.489 6.90357Z" fill="white"/>
</g>
<defs>
<clipPath id="clip0_384_107">
<rect width="29.6154" height="29.6154" fill="white" transform="translate(0 0.000244141)"/>
</clipPath>
</defs>
</svg>
