<svg width="33" height="32" viewBox="0 0 33 32" fill="none" xmlns="http://www.w3.org/2000/svg">
<g clip-path="url(#clip0_384_119)">
<path d="M16.5386 0.000244141C7.70337 0.000244141 0.538574 7.16504 0.538574 16.0002C0.538574 24.8354 7.70337 32.0002 16.5386 32.0002C25.3738 32.0002 32.5386 24.8354 32.5386 16.0002C32.5386 7.16504 25.377 0.000244141 16.5386 0.000244141ZM8.43297 16.5378L8.50017 16.429L12.6634 9.91704C12.7242 9.82424 12.8682 9.83384 12.913 9.93624C13.6074 11.4946 14.209 13.4338 13.9274 14.6402C13.809 15.1362 13.4794 15.8082 13.1082 16.429C13.0602 16.5186 13.009 16.6082 12.9514 16.6946C12.9258 16.733 12.881 16.7554 12.833 16.7554H8.55457C8.43937 16.7554 8.37217 16.6306 8.43297 16.5378ZM26.9834 18.7778C26.9834 18.8386 26.9482 18.8898 26.897 18.9122C26.5738 19.0498 25.4698 19.5586 25.0122 20.1954C23.841 21.8242 22.9482 24.1538 20.9482 24.1538H12.609C9.65218 24.1538 7.25857 21.7506 7.25857 18.7842V18.6882C7.25857 18.6114 7.32257 18.5474 7.40257 18.5474H12.049C12.1418 18.5474 12.209 18.6306 12.2026 18.7234C12.1674 19.0242 12.225 19.3346 12.369 19.6162C12.6442 20.1762 13.217 20.525 13.8346 20.525H16.1354V18.7298H13.8602C13.745 18.7298 13.6746 18.5954 13.7418 18.4994C13.7674 18.461 13.793 18.4226 13.825 18.3778C14.0394 18.0706 14.3466 17.597 14.6538 17.0562C14.8618 16.6914 15.0634 16.301 15.2266 15.9106C15.2586 15.8402 15.2842 15.7666 15.313 15.6962C15.3578 15.5714 15.4026 15.453 15.4346 15.3378C15.4666 15.2386 15.4954 15.1362 15.521 15.0402C15.5978 14.7074 15.6298 14.3554 15.6298 13.9906C15.6298 13.8466 15.6234 13.6962 15.6106 13.5554C15.6042 13.3986 15.585 13.2418 15.5658 13.085C15.553 12.9474 15.5274 12.8098 15.5018 12.669C15.4666 12.461 15.4218 12.253 15.3706 12.045L15.3514 11.965C15.313 11.821 15.2778 11.6866 15.233 11.5426C15.1018 11.0946 14.9546 10.6562 14.7946 10.2466C14.737 10.0834 14.673 9.92664 14.6058 9.77304C14.5098 9.53624 14.4106 9.32184 14.321 9.12024C14.273 9.02744 14.2346 8.94424 14.1962 8.85784C14.1514 8.76184 14.1066 8.66584 14.0586 8.57304C14.0266 8.50264 13.9882 8.43544 13.9626 8.37144L13.681 7.85304C13.6426 7.78264 13.7066 7.69624 13.7834 7.71864L15.5434 8.19544H15.5498C15.553 8.19544 15.553 8.19544 15.5562 8.19544L15.7866 8.26264L16.0426 8.33304L16.1354 8.35864V7.31544C16.1354 6.80984 16.5386 6.40024 17.041 6.40024C17.2906 6.40024 17.5178 6.50264 17.6778 6.66904C17.841 6.83544 17.9434 7.06264 17.9434 7.31544V8.86744L18.1322 8.91864C18.145 8.92504 18.161 8.93144 18.1738 8.94104C18.2186 8.97304 18.2858 9.02424 18.369 9.08824C18.4362 9.13944 18.5066 9.20344 18.5898 9.27064C18.7594 9.40824 18.9642 9.58424 19.185 9.78584C19.2426 9.83704 19.3002 9.88824 19.3546 9.94264C19.6394 10.2082 19.9594 10.5186 20.2666 10.8642C20.353 10.9634 20.4362 11.0594 20.5226 11.165C20.6058 11.2706 20.6986 11.373 20.7754 11.4754C20.881 11.613 20.9898 11.757 21.089 11.9074C21.1338 11.9778 21.1882 12.0514 21.2298 12.1218C21.3578 12.3106 21.4666 12.5058 21.5722 12.701C21.617 12.7906 21.6618 12.8898 21.7002 12.9858C21.8186 13.2482 21.9114 13.5138 21.969 13.7826C21.9882 13.8402 22.001 13.901 22.0074 13.9586V13.9714C22.0266 14.0482 22.033 14.1314 22.0394 14.2178C22.065 14.4898 22.0522 14.765 21.9946 15.0402C21.969 15.1554 21.937 15.2642 21.8986 15.3826C21.857 15.4946 21.8186 15.6098 21.7674 15.7218C21.6682 15.949 21.553 16.1794 21.4154 16.3906C21.3706 16.4706 21.3162 16.5538 21.265 16.6338C21.2074 16.717 21.1466 16.797 21.0954 16.8738C21.0218 16.973 20.945 17.0754 20.865 17.1682C20.7946 17.2642 20.7242 17.3602 20.6442 17.4466C20.5354 17.5778 20.4298 17.6994 20.3178 17.8178C20.2538 17.8946 20.1834 17.9746 20.1098 18.045C20.0394 18.125 19.9658 18.1954 19.9018 18.2594C19.7898 18.3714 19.7002 18.4546 19.6234 18.5282L19.441 18.6914C19.4154 18.717 19.3802 18.7298 19.345 18.7298H17.9434V20.525H19.7066C20.1002 20.525 20.4746 20.3874 20.7786 20.1282C20.881 20.0386 21.3322 19.6482 21.8666 19.0594C21.8858 19.037 21.9082 19.0242 21.9338 19.0178L26.801 17.6098C26.8938 17.5842 26.9834 17.6514 26.9834 17.7474V18.7778Z" fill="white"/>
</g>
<defs>
<clipPath id="clip0_384_119">
<rect width="32" height="32" fill="white" transform="translate(0.538574 0.000244141)"/>
</clipPath>
</defs>
</svg>
