<svg width="33" height="28" viewBox="0 0 33 28" fill="none" xmlns="http://www.w3.org/2000/svg">
<g clip-path="url(#clip0_384_110)">
<path d="M32.8463 3.97113C31.6576 4.50924 30.3801 4.87292 29.0393 5.03649C30.4079 4.19911 31.4588 2.87321 31.9537 1.29339C30.673 2.06864 29.2545 2.63172 27.7447 2.93521C26.5355 1.62028 24.8129 0.798584 22.9065 0.798584C19.2458 0.798584 16.278 3.82783 16.278 7.56417C16.278 8.09444 16.3367 8.61083 16.4497 9.106C10.9409 8.82386 6.05685 6.13031 2.78767 2.03704C2.21712 3.03629 1.89025 4.19851 1.89025 5.43841C1.89025 7.78564 3.06053 9.85652 4.83906 11.0698C3.75244 11.0347 2.73047 10.7303 1.83672 10.2236C1.83625 10.2518 1.83625 10.2802 1.83625 10.3086C1.83625 13.5867 4.12103 16.3213 7.15327 16.9427C6.59702 17.0974 6.01147 17.18 5.40689 17.18C4.9798 17.18 4.56454 17.1377 4.15991 17.0587C5.00332 19.7466 7.45118 21.7027 10.3517 21.7573C8.08318 23.5719 5.22513 24.6535 2.11975 24.6535C1.58477 24.6535 1.05712 24.6216 0.538574 24.5591C3.4719 26.4787 6.95603 27.5987 10.6992 27.5987C22.891 27.5987 29.5579 17.2893 29.5579 8.34872C29.5579 8.05536 29.5516 7.76357 29.5388 7.47346C30.8338 6.51956 31.9576 5.32791 32.8463 3.97113Z" fill="white"/>
</g>
<defs>
<clipPath id="clip0_384_110">
<rect width="32.3077" height="26.9231" fill="white" transform="translate(0.538574 0.692627)"/>
</clipPath>
</defs>
</svg>
